<?xml version="1.0" standalone="no"?>
<!DOCTYPE svg PUBLIC "-//W3C//DTD SVG 20010904//EN"
 "http://www.w3.org/TR/2001/REC-SVG-20010904/DTD/svg10.dtd">
<svg version="1.0" xmlns="http://www.w3.org/2000/svg"
 width="257.000000pt" height="257.000000pt" viewBox="0 0 257.000000 257.000000"
 preserveAspectRatio="xMidYMid meet">

<g transform="translate(0.000000,257.000000) scale(0.100000,-0.100000)"
fill="#000000" stroke="none">
<path d="M1356 2388 c-10 -31 -15 -208 -6 -208 15 0 17 11 25 118 5 72 3 102
-5 102 -6 0 -12 -6 -14 -12z"/>
<path d="M1129 2351 c-21 -22 -29 -39 -29 -66 0 -101 99 -151 172 -87 27 25
31 36 31 76 0 66 -38 106 -101 106 -35 0 -49 -6 -73 -29z m125 -10 c10 -11 20
-37 23 -59 5 -34 1 -45 -20 -66 -35 -35 -79 -35 -106 0 -28 35 -28 97 -1 124
26 26 81 26 104 1z"/>
<path d="M1431 2259 c-11 -54 -10 -63 5 -80 9 -10 30 -19 46 -19 31 0 36 -11
12 -31 -12 -10 -22 -10 -47 -1 -32 12 -43 10 -33 -6 19 -31 107 -19 121 16 11
30 36 155 31 159 -12 12 -25 -11 -32 -52 -7 -50 -23 -68 -56 -63 -19 2 -23 9
-23 38 0 19 4 50 7 68 6 24 4 32 -6 32 -8 0 -18 -23 -25 -61z"/>
<path d="M936 2273 c-3 -3 -6 -34 -6 -67 l0 -60 -45 44 c-24 24 -48 40 -52 37
-10 -11 103 -121 116 -113 6 4 11 38 11 81 0 68 -8 94 -24 78z"/>
<path d="M1633 2258 c-21 -30 -56 -119 -48 -125 4 -5 9 -3 12 2 28 76 76 113
103 80 10 -12 9 -24 -9 -66 -35 -81 -14 -80 31 0 20 37 43 48 63 31 20 -17 19
-43 -6 -91 -20 -40 -20 -57 0 -45 12 8 51 93 51 112 0 22 -30 44 -60 44 -19 0
-33 7 -40 20 -6 11 -23 23 -38 26 -15 4 -32 11 -38 16 -7 5 -15 3 -21 -4z"/>
<path d="M760 2180 c0 -5 -9 -10 -20 -10 -29 0 -60 -36 -60 -69 0 -70 90 -113
131 -63 9 12 22 22 28 22 19 0 12 24 -24 78 -33 48 -55 65 -55 42z m30 -50
c28 -28 26 -66 -4 -85 -19 -13 -29 -14 -45 -5 -40 21 -52 67 -25 94 21 22 50
20 74 -4z"/>
<path d="M1851 2044 c-60 -71 -78 -112 -27 -65 l23 22 17 -25 c22 -34 56 -42
95 -22 30 16 49 54 42 86 -5 24 -32 50 -53 50 -10 0 -18 7 -18 15 0 27 -14 16
-79 -61z m107 20 c28 -19 28 -57 0 -84 -28 -26 -53 -25 -72 2 -22 31 -20 45 9
73 28 29 33 30 63 9z"/>
<path d="M557 2032 c-10 -10 -17 -24 -17 -30 0 -7 -7 -12 -15 -12 -8 0 -15 -4
-15 -8 0 -13 94 -102 108 -102 20 0 14 14 -23 50 -36 35 -44 67 -23 88 19 19
35 14 78 -24 22 -20 44 -34 48 -30 4 4 -12 25 -35 47 -46 43 -80 50 -106 21z"/>
<path d="M2090 2010 c0 -5 5 -10 10 -10 6 0 10 5 10 10 0 6 -4 10 -10 10 -5 0
-10 -4 -10 -10z"/>
<path d="M2008 1941 c-29 -27 -50 -52 -46 -56 8 -8 118 82 118 96 0 19 -21 7
-72 -40z"/>
<path d="M420 1950 c0 -5 7 -10 15 -10 8 0 15 5 15 10 0 6 -7 10 -15 10 -8 0
-15 -4 -15 -10z"/>
<path d="M460 1922 c0 -7 91 -79 107 -84 4 -2 9 1 11 5 3 9 -93 87 -108 87 -5
0 -10 -4 -10 -8z"/>
<path d="M2039 1881 c-16 -16 -29 -38 -29 -49 0 -28 38 -72 62 -72 19 0 19 2
-6 21 -52 41 -16 121 48 105 22 -5 43 -38 38 -58 -1 -5 5 -8 13 -8 23 0 18 38
-10 65 -34 35 -78 33 -116 -4z"/>
<path d="M390 1821 c-5 -11 -10 -27 -10 -35 0 -20 -11 -20 -36 -1 -21 16 -44
20 -44 7 0 -7 173 -112 185 -112 18 0 -1 23 -35 42 -47 27 -61 61 -36 86 16
16 20 15 68 -10 29 -16 56 -24 60 -20 11 11 -83 62 -116 62 -15 0 -30 -8 -36
-19z"/>
<path d="M2188 1674 c-35 -19 -48 -43 -48 -93 0 -27 7 -48 23 -66 20 -24 25
-25 57 -14 48 16 52 22 41 52 -13 35 -35 36 -27 2 5 -20 2 -26 -20 -31 -32 -8
-43 3 -51 49 -5 31 -1 40 25 67 17 16 40 30 51 30 52 0 91 -41 91 -95 0 -14 5
-25 10 -25 18 0 22 28 10 65 -21 65 -100 93 -162 59z"/>
<path d="M309 1649 c-14 -14 -19 -29 -16 -45 4 -24 3 -25 -42 -18 -65 9 -50 0
67 -41 114 -39 115 -40 109 -22 -2 6 3 20 11 30 23 26 19 77 -7 99 -32 25 -95
24 -122 -3z m86 -1 c29 -13 43 -53 28 -77 -14 -23 -61 -26 -84 -5 -25 23 -24
59 3 78 27 19 21 19 53 4z"/>
<path d="M292 1453 c-54 -15 -91 -31 -89 -37 5 -14 167 -106 187 -105 9 0 5 7
-12 20 -23 17 -28 28 -28 65 0 42 2 46 35 60 19 8 35 16 35 19 0 9 -36 3 -128
-22z m34 -45 c-3 -17 -8 -34 -11 -36 -2 -2 -21 6 -42 19 l-38 23 40 12 c57 18
58 17 51 -18z"/>
<path d="M2202 1440 c-32 -30 -30 -82 4 -109 55 -43 134 -11 134 55 0 21 -8
42 -20 54 -27 27 -89 27 -118 0z m103 -20 c35 -39 -7 -99 -61 -86 -14 4 -30
17 -36 31 -25 56 54 102 97 55z"/>
<path d="M2197 1263 c-4 -6 20 -13 61 -17 97 -9 152 -7 152 4 0 6 -13 10 -28
10 -16 0 -63 3 -104 6 -46 4 -78 3 -81 -3z"/>
<path d="M2195 1168 c-24 -18 -26 -26 -21 -60 4 -26 3 -38 -6 -38 -6 0 -8 -3
-5 -7 9 -8 211 -42 217 -36 8 7 -24 23 -47 23 -24 0 -31 14 -13 25 6 3 10 21
10 40 0 65 -79 97 -135 53z m95 -18 c27 -27 25 -56 -5 -76 -21 -14 -30 -14
-55 -4 -37 15 -47 44 -26 75 20 31 58 33 86 5z"/>
<path d="M354 936 c-65 -29 -80 -84 -41 -149 33 -54 72 -77 132 -77 128 0 178
120 86 204 -32 29 -37 11 -7 -24 35 -42 41 -72 21 -110 -35 -68 -133 -76 -191
-15 -38 41 -49 79 -34 115 17 42 83 64 120 40 19 -12 8 -22 -55 -45 -28 -11
-43 -21 -34 -23 10 -2 15 -10 12 -20 -12 -46 74 -80 122 -48 31 21 31 65 0 81
-12 6 -19 18 -17 31 6 41 -60 64 -114 40z m124 -88 c19 -19 14 -37 -12 -49
-48 -22 -103 13 -75 47 14 17 71 18 87 2z"/>
<path d="M2114 913 c4 -4 36 -24 73 -44 l65 -36 -66 -7 -66 -8 25 -48 c14 -27
25 -52 25 -56 0 -3 -25 8 -55 25 -52 29 -101 43 -79 22 18 -18 154 -91 169
-91 20 0 20 1 -15 71 -34 67 -34 67 49 71 30 2 56 8 58 13 3 12 -148 95 -173
95 -9 0 -14 -3 -10 -7z"/>
<path d="M1955 685 c-28 -27 -33 -65 -10 -65 8 0 15 8 15 18 0 36 59 68 75 42
4 -6 -10 -29 -29 -52 -27 -32 -33 -44 -25 -55 18 -21 73 -16 97 10 30 32 28
63 -7 98 -38 37 -82 39 -116 4z m115 -58 c0 -28 -17 -47 -42 -47 -23 0 -23 5
4 40 26 36 38 38 38 7z"/>
<path d="M597 632 c-10 -10 -17 -26 -17 -35 0 -9 -12 -22 -27 -29 -53 -25 -34
-108 24 -108 26 0 63 32 63 55 0 8 9 15 19 15 21 0 51 35 51 58 0 22 -47 62
-73 62 -13 0 -31 -8 -40 -18z m73 -16 c6 -8 10 -25 8 -38 -4 -32 -52 -38 -68
-9 -22 43 29 83 60 47z m-72 -68 c17 -17 15 -58 -4 -65 -36 -13 -68 33 -44 62
15 18 32 19 48 3z"/>
<path d="M1814 556 c-8 -14 -22 -26 -31 -28 -10 -2 5 -28 52 -91 36 -48 70
-85 76 -82 5 4 0 19 -12 36 -12 17 -20 31 -18 32 2 1 18 9 34 17 40 21 48 80
14 116 -32 34 -92 33 -115 0z m102 -21 c18 -28 12 -72 -11 -82 -26 -9 -65 7
-77 32 -28 62 51 107 88 50z"/>
<path d="M696 469 c-31 -44 -56 -82 -56 -85 0 -2 21 -4 46 -4 27 0 43 4 39 10
-3 6 -15 10 -26 10 -18 0 -15 8 25 65 25 36 46 70 46 75 0 26 -23 3 -74 -71z"/>
<path d="M854 480 c-30 -12 -62 -56 -75 -103 -9 -35 -8 -44 9 -66 49 -66 138
-15 157 89 10 57 -40 101 -91 80z m61 -40 c10 -31 -4 -77 -32 -110 -64 -77
-109 6 -53 98 24 39 74 46 85 12z"/>
<path d="M1655 460 c-9 -10 -21 -18 -25 -17 -16 4 -12 -16 15 -74 26 -54 45
-75 45 -49 0 6 14 10 30 10 35 0 70 31 70 60 0 29 -26 76 -45 84 -32 12 -72 6
-90 -14z m87 -17 c20 -18 24 -63 6 -81 -30 -30 -88 1 -88 48 0 48 45 67 82 33z"/>
<path d="M995 421 c3 -5 20 -13 38 -16 51 -12 51 -15 -2 -51 -52 -35 -71 -59
-71 -92 0 -45 75 -69 116 -37 18 14 15 15 -28 9 -45 -6 -47 -5 -54 20 -8 32 9
53 78 97 27 17 47 36 45 42 -2 6 -26 17 -53 24 -59 15 -77 16 -69 4z"/>
<path d="M1554 405 c3 -8 17 -53 31 -100 17 -53 31 -85 40 -85 12 0 12 7 -1
48 -8 26 -21 71 -30 100 -10 33 -21 52 -31 52 -9 0 -13 -6 -9 -15z"/>
<path d="M1483 388 c2 -7 10 -39 17 -70 9 -38 18 -58 28 -58 8 0 12 6 9 13 -2
7 -10 38 -17 70 -8 39 -16 57 -27 57 -8 0 -13 -6 -10 -12z"/>
<path d="M1350 375 c-20 -25 -7 -49 35 -63 51 -17 61 -27 46 -46 -9 -10 -22
-13 -43 -9 -22 4 -29 3 -24 -5 11 -17 72 -15 90 4 28 27 16 48 -39 67 -22 8
-41 21 -43 30 -4 20 32 31 58 17 23 -13 36 -8 25 9 -10 16 -91 13 -105 -4z"/>
<path d="M1263 369 c12 -7 17 -23 17 -60 0 -42 -3 -51 -22 -58 l-22 -8 22 -12
c12 -6 22 -18 22 -26 0 -8 5 -15 10 -15 6 0 10 9 10 20 0 11 7 20 15 20 8 0
15 5 15 10 0 6 -7 10 -15 10 -12 0 -15 14 -15 65 0 64 0 65 -27 65 -24 -1 -25
-2 -10 -11z"/>
<path d="M1526 233 c-11 -11 -6 -23 9 -23 8 0 15 4 15 9 0 13 -16 22 -24 14z"/>
</g>
</svg>
